<?xml version="1.0" standalone="no"?>
<!DOCTYPE svg PUBLIC "-//W3C//DTD SVG 20010904//EN"
 "http://www.w3.org/TR/2001/REC-SVG-20010904/DTD/svg10.dtd">
<svg version="1.0" xmlns="http://www.w3.org/2000/svg"
 width="148.000000pt" height="148.000000pt" viewBox="0 0 148.000000 148.000000"
 preserveAspectRatio="xMidYMid meet">
<metadata>
Created by potrace 1.14, written by Peter Selinger 2001-2017
</metadata>
<g transform="translate(0.000000,148.000000) scale(0.100000,-0.100000)"
fill="#000000" stroke="none">
<path d="M544 978 c-4 -5 3 -16 15 -24 20 -15 21 -23 21 -210 0 -182 -1 -195
-20 -211 -11 -10 -20 -22 -20 -26 0 -6 53 -8 123 -5 138 5 182 20 223 74 71
92 64 287 -13 356 -39 36 -93 49 -210 52 -62 2 -116 -1 -119 -6z m219 -43 c65
-27 97 -96 93 -202 -5 -142 -67 -204 -193 -194 -10 1 -13 49 -13 206 l0 205
39 0 c21 0 54 -7 74 -15z"/>
<path d="M100 892 c-43 -21 -80 -79 -59 -93 10 -6 21 -1 36 16 44 50 72 49
158 -4 29 -18 55 -25 93 -25 51 -1 56 2 94 43 37 39 39 44 25 58 -14 15 -18
13 -41 -14 -38 -45 -64 -46 -153 -2 -87 44 -104 46 -153 21z"/>
<path d="M1104 896 c-40 -18 -83 -84 -63 -97 10 -6 22 1 41 21 35 38 67 38
137 0 100 -55 170 -48 219 23 26 39 27 43 7 50 -8 4 -27 -6 -44 -23 -39 -40
-75 -39 -157 5 -71 38 -93 41 -140 21z"/>
<path d="M77 740 c-19 -17 -37 -39 -40 -51 -8 -31 19 -34 45 -5 35 40 62 40
139 0 105 -54 162 -49 215 22 24 31 26 37 12 50 -14 14 -18 13 -37 -15 -35
-48 -76 -50 -154 -7 -83 47 -132 48 -180 6z"/>
<path d="M1068 730 c-21 -23 -38 -45 -38 -51 0 -23 30 -18 58 11 37 36 53 35
141 -10 64 -34 122 -41 160 -20 28 15 74 77 66 90 -11 17 -32 11 -49 -15 -27
-42 -72 -42 -150 -1 -95 50 -136 49 -188 -4z"/>
<path d="M109 628 c-15 -5 -40 -27 -55 -49 -23 -34 -25 -42 -13 -50 18 -11 29
-11 29 -1 0 18 42 52 65 52 14 0 57 -16 96 -36 57 -29 79 -35 109 -31 44 6 81
30 104 68 14 23 14 28 1 39 -11 9 -19 6 -42 -19 -39 -43 -67 -45 -138 -6 -67
37 -117 48 -156 33z"/>
<path d="M1104 626 c-40 -18 -83 -84 -63 -97 19 -12 29 -11 29 2 0 19 41 49
67 49 12 0 54 -16 92 -35 89 -46 134 -45 187 1 35 31 46 60 29 74 -12 10 -19
7 -40 -18 -37 -44 -67 -45 -142 -6 -76 41 -117 48 -159 30z"/>
</g>
</svg>
